<svg version="1.1" id="Layer_1" xmlns="http://www.w3.org/2000/svg" xmlns:xlink="http://www.w3.org/1999/xlink" x="0px" y="0px"
	 width="100%" viewBox="0 0 97 114" enable-background="new 0 0 97 114" xml:space="preserve">
<path fill="#020202" opacity="1.000000" stroke="none" 
	d="
M68.000000,1.000000 
	C77.988853,1.000000 87.977715,1.000000 97.983284,1.000000 
	C97.983284,38.946499 97.983284,76.893005 97.983284,114.919754 
	C65.756363,114.919754 33.512478,114.919754 1.134296,114.919754 
	C1.134296,77.000305 1.134296,39.000229 1.134296,1.000000 
	C13.423428,1.000000 25.743055,1.000000 38.517338,1.463862 
	C39.102787,10.067300 39.228634,17.978586 34.383408,25.395821 
	C25.594439,38.850273 17.444725,52.723476 9.120411,66.477699 
	C8.557007,67.408607 8.237203,69.189491 8.746451,69.889771 
	C9.387483,70.771255 11.156559,71.556931 12.159178,71.298531 
	C14.181355,70.777359 16.424089,69.926926 17.842873,68.489067 
	C21.088127,65.200172 23.857149,61.445675 26.888834,57.940163 
	C28.777967,55.755772 30.793428,53.680630 33.490788,50.755501 
	C35.980061,54.436733 38.950035,57.039398 39.593616,60.126980 
	C41.303093,68.328201 41.922798,76.751244 43.139099,85.062187 
	C44.238548,92.574699 45.366409,100.095360 46.939907,107.515259 
	C47.235661,108.909897 49.689396,109.846909 51.147316,110.995094 
	C51.937138,109.402992 53.339840,107.839622 53.416046,106.214073 
	C53.867413,96.585892 53.956669,86.941360 54.295773,77.306839 
	C54.382679,74.837608 54.931847,72.384659 55.268646,69.924225 
	C55.730438,69.938232 56.192226,69.952248 56.654018,69.966263 
	C57.153793,71.314499 57.732914,72.639236 58.140251,74.014847 
	C60.492966,81.960136 62.696556,89.951683 65.189224,97.852295 
	C66.075226,100.660515 67.402008,103.404991 68.996735,105.875755 
	C69.601242,106.812347 71.527046,106.896133 72.850601,107.368622 
	C73.198540,106.072021 74.006760,104.700684 73.810547,103.492447 
	C73.147552,99.409683 72.134598,95.383377 71.243790,91.338051 
	C69.446709,83.177193 67.641975,75.018021 65.840401,66.858154 
	C74.282364,72.771851 74.422684,84.963783 84.913727,89.335632 
	C83.367653,77.277046 76.042526,67.044388 73.489220,53.946789 
	C78.412819,58.950260 78.052933,66.947372 87.086639,68.069626 
	C83.456467,59.781525 80.765549,52.130306 76.898720,45.128502 
	C69.239273,31.259287 66.108002,16.689930 68.000000,1.000000 
z"/>
<path fill="#F9F9F9" opacity="1.000000" stroke="none" 
	d="
M67.531342,1.000000 
	C66.108002,16.689930 69.239273,31.259287 76.898720,45.128502 
	C80.765549,52.130306 83.456467,59.781525 87.086639,68.069626 
	C78.052933,66.947372 78.412819,58.950260 73.489220,53.946789 
	C76.042526,67.044388 83.367653,77.277046 84.913727,89.335632 
	C74.422684,84.963783 74.282364,72.771851 65.840401,66.858154 
	C67.641975,75.018021 69.446709,83.177193 71.243790,91.338051 
	C72.134598,95.383377 73.147552,99.409683 73.810547,103.492447 
	C74.006760,104.700684 73.198540,106.072021 72.850601,107.368622 
	C71.527046,106.896133 69.601242,106.812347 68.996735,105.875755 
	C67.402008,103.404991 66.075226,100.660515 65.189224,97.852295 
	C62.696556,89.951683 60.492966,81.960136 58.140251,74.014847 
	C57.732914,72.639236 57.153793,71.314499 56.654018,69.966263 
	C56.192226,69.952248 55.730438,69.938232 55.268646,69.924225 
	C54.931847,72.384659 54.382679,74.837608 54.295773,77.306839 
	C53.956669,86.941360 53.867413,96.585892 53.416046,106.214073 
	C53.339840,107.839622 51.937138,109.402992 51.147316,110.995094 
	C49.689396,109.846909 47.235661,108.909897 46.939907,107.515259 
	C45.366409,100.095360 44.238548,92.574699 43.139099,85.062187 
	C41.922798,76.751244 41.303093,68.328201 39.593616,60.126980 
	C38.950035,57.039398 35.980061,54.436733 33.490788,50.755501 
	C30.793428,53.680630 28.777967,55.755772 26.888834,57.940163 
	C23.857149,61.445675 21.088127,65.200172 17.842873,68.489067 
	C16.424089,69.926926 14.181355,70.777359 12.159178,71.298531 
	C11.156559,71.556931 9.387483,70.771255 8.746451,69.889771 
	C8.237203,69.189491 8.557007,67.408607 9.120411,66.477699 
	C17.444725,52.723476 25.594439,38.850273 34.383408,25.395821 
	C39.228634,17.978586 39.102787,10.067300 38.985996,1.463862 
	C48.354229,1.000000 57.708454,1.000000 67.531342,1.000000 
z"/>
</svg>